# xmcd CD database file
#
# Track frame offsets:
#	150
#	13082
#	33338
#	52433
#	68827
#	84089
#	99358
#	113315
#	129399
#	144542
#
# Disc length: 2126 seconds
#
# Revision: 0
# Processed by: cddbd v1.5.1PL0 Copyright (c) Steve Scherf et al.
# Submitted via: CDex 1.51
#
DISCID=7b084c0a
DTITLE=Justin David - It's just me
DYEAR=2003
DGENRE=Country
TTITLE0=I'll Know When I Get There
TTITLE1=Where would I be
TTITLE2=Don't Forget About Maggie
TTITLE3=Finding A Way Back To You
TTITLE4=Timberlake
TTITLE5=Don't Try To Find Me
TTITLE6=It's Just Me
TTITLE7=Get A Life
TTITLE8=If I Ever Say I'm Over You
TTITLE9=The Journey Of Shamus O'Brien
EXTD=YEAR: 2003
EXTT0=
EXTT1=
EXTT2=
EXTT3=
EXTT4=
EXTT5=
EXTT6=
EXTT7=
EXTT8=
EXTT9=
PLAYORDER=
